<?xml version="1.0" standalone="no"?>
<!DOCTYPE svg PUBLIC "-//W3C//DTD SVG 20010904//EN"
 "http://www.w3.org/TR/2001/REC-SVG-20010904/DTD/svg10.dtd">
<svg version="1.0" xmlns="http://www.w3.org/2000/svg"
 width="200.000000pt" height="200.000000pt" viewBox="0 0 200.000000 200.000000"
 preserveAspectRatio="xMidYMid meet">
<metadata>
Created by potrace 1.16, written by Peter Selinger 2001-2019
</metadata>
<g transform="translate(0.000000,200.000000) scale(0.100000,-0.100000)"
fill="#000000" stroke="none">
<path d="M1430 1615 c-47 -7 -148 -20 -225 -30 -160 -20 -212 -36 -221 -71 -5
-21 61 -575 106 -884 23 -161 27 -165 155 -156 89 6 411 50 445 61 10 3 30 22
45 41 23 30 26 42 21 77 -3 23 -31 240 -62 482 -31 242 -61 451 -68 465 -10
21 -18 25 -61 26 -28 1 -88 -4 -135 -11z m142 -82 c11 -13 30 -137 68 -427 43
-342 50 -410 38 -421 -7 -8 -98 -24 -214 -39 -213 -28 -260 -31 -268 -18 -11
18 -106 744 -106 813 0 51 -23 46 456 108 6 0 18 -7 26 -16z"/>
<path d="M1458 1181 c-27 -4 -52 -11 -57 -16 -9 -10 0 -110 11 -120 3 -4 34
-3 68 1 l62 7 -7 61 c-7 62 -11 77 -23 75 -4 -1 -28 -5 -54 -8z"/>
<path d="M1258 1153 c-30 -5 -34 -21 -22 -95 6 -35 9 -38 39 -38 18 0 47 3 64
6 27 6 31 11 31 39 0 18 -3 47 -6 64 -6 28 -10 31 -43 30 -20 -1 -48 -4 -63
-6z"/>
<path d="M1340 995 c-8 -2 -32 -6 -53 -10 -37 -6 -39 -7 -35 -43 4 -43 -15
-57 -20 -15 -4 31 -22 57 -22 31 0 -45 13 -78 31 -78 11 0 19 -7 19 -16 0 -14
9 -16 62 -10 34 4 66 10 70 13 5 2 6 21 3 41 -16 98 -14 95 -55 87z"/>
<path d="M354 993 l-39 -278 -75 -5 c-57 -4 -33 -6 95 -10 209 -6 711 0 670 9
l-30 6 -38 265 c-20 146 -39 271 -42 278 -3 9 -63 12 -253 12 l-249 0 -39
-277z m567 -8 c21 -142 35 -263 33 -267 -6 -10 -435 -10 -450 0 -6 4 -25 115
-43 247 -18 132 -35 250 -38 263 l-5 22 233 -2 233 -3 37 -260z"/>
<path d="M554 1137 c-3 -8 -4 -36 -2 -63 l3 -49 60 0 60 0 0 60 0 60 -58 3
c-42 2 -59 -1 -63 -11z"/>
<path d="M704 1137 c-3 -8 -4 -36 -2 -63 l3 -49 60 0 60 0 0 60 0 60 -58 3
c-42 2 -59 -1 -63 -11z"/>
<path d="M563 994 c-8 -4 -13 -27 -13 -65 l0 -59 65 0 66 0 -3 63 -3 62 -50 2
c-27 1 -56 0 -62 -3z"/>
</g>
</svg>
